<svg width="159" height="38" viewBox="0 0 159 38" fill="none" xmlns="http://www.w3.org/2000/svg">
<path d="M0.642046 37V2.09091H15.0625C17.6761 2.09091 19.9318 2.60227 21.8295 3.625C23.7386 4.63636 25.2102 6.05113 26.2443 7.86932C27.2784 9.67614 27.7955 11.7784 27.7955 14.1761C27.7955 16.5852 27.267 18.6932 26.2102 20.5C25.1648 22.2955 23.6705 23.6875 21.7273 24.6761C19.7841 25.6648 17.4773 26.1591 14.8068 26.1591H5.90909V19.5114H13.2386C14.5114 19.5114 15.5739 19.2898 16.4261 18.8466C17.2898 18.4034 17.9432 17.7841 18.3864 16.9886C18.8295 16.1818 19.0511 15.2443 19.0511 14.1761C19.0511 13.0966 18.8295 12.1648 18.3864 11.3807C17.9432 10.5852 17.2898 9.97159 16.4261 9.53977C15.5625 9.10795 14.5 8.89205 13.2386 8.89205H9.07955V37H0.642046ZM43.6605 37.4943C40.9105 37.4943 38.5469 36.9318 36.5696 35.8068C34.6037 34.6705 33.0866 33.0909 32.0185 31.0682C30.9616 29.0341 30.4332 26.6761 30.4332 23.9943C30.4332 21.3011 30.9616 18.9432 32.0185 16.9205C33.0866 14.8864 34.6037 13.3068 36.5696 12.1818C38.5469 11.0455 40.9105 10.4773 43.6605 10.4773C46.4105 10.4773 48.7685 11.0455 50.7344 12.1818C52.7116 13.3068 54.2287 14.8864 55.2855 16.9205C56.3537 18.9432 56.8878 21.3011 56.8878 23.9943C56.8878 26.6761 56.3537 29.0341 55.2855 31.0682C54.2287 33.0909 52.7116 34.6705 50.7344 35.8068C48.7685 36.9318 46.4105 37.4943 43.6605 37.4943ZM43.7116 31.2045C44.7116 31.2045 45.5582 30.8977 46.2514 30.2841C46.9446 29.6705 47.473 28.8182 47.8366 27.7273C48.2116 26.6364 48.3991 25.375 48.3991 23.9432C48.3991 22.4886 48.2116 21.2159 47.8366 20.125C47.473 19.0341 46.9446 18.1818 46.2514 17.5682C45.5582 16.9545 44.7116 16.6477 43.7116 16.6477C42.6776 16.6477 41.8026 16.9545 41.0866 17.5682C40.3821 18.1818 39.8423 19.0341 39.4673 20.125C39.1037 21.2159 38.9219 22.4886 38.9219 23.9432C38.9219 25.375 39.1037 26.6364 39.4673 27.7273C39.8423 28.8182 40.3821 29.6705 41.0866 30.2841C41.8026 30.8977 42.6776 31.2045 43.7116 31.2045ZM61.1577 37V10.8182H69.2543V15.5909H69.527C70.0043 13.8636 70.7827 12.5795 71.8622 11.7386C72.9418 10.8864 74.1974 10.4602 75.6293 10.4602C76.0156 10.4602 76.4134 10.4886 76.8224 10.5455C77.2315 10.5909 77.6122 10.6648 77.9645 10.767V18.0114C77.5668 17.875 77.044 17.767 76.3963 17.6875C75.7599 17.608 75.1918 17.5682 74.6918 17.5682C73.7031 17.5682 72.8111 17.7898 72.0156 18.233C71.2315 18.6648 70.6122 19.2727 70.1577 20.0568C69.7145 20.8295 69.4929 21.7386 69.4929 22.7841V37H61.1577ZM97.358 10.8182V16.9545H80.8409V10.8182H97.358ZM84.3011 4.54545H92.6364V28.767C92.6364 29.2784 92.7159 29.6932 92.875 30.0114C93.0455 30.3182 93.2898 30.5398 93.608 30.6761C93.9261 30.8011 94.3068 30.8636 94.75 30.8636C95.0682 30.8636 95.4034 30.8352 95.7557 30.7784C96.1193 30.7102 96.392 30.6534 96.5739 30.608L97.8352 36.625C97.4375 36.7386 96.875 36.8807 96.1477 37.0511C95.4318 37.2216 94.5739 37.3295 93.5739 37.375C91.6193 37.4659 89.9432 37.2386 88.5455 36.6932C87.1591 36.1364 86.0966 35.2727 85.358 34.1023C84.6307 32.9318 84.2784 31.4602 84.3011 29.6875V4.54545ZM116.491 10.8182V16.9545H99.6506V10.8182H116.491ZM103.162 37V9.48864C103.162 7.46591 103.543 5.78977 104.304 4.46023C105.065 3.11932 106.122 2.11932 107.474 1.46023C108.827 0.789771 110.389 0.454543 112.162 0.454543C113.321 0.454543 114.412 0.545453 115.435 0.727273C116.469 0.897727 117.236 1.05114 117.736 1.1875L116.406 7.28977C116.099 7.1875 115.724 7.10227 115.281 7.03409C114.849 6.96591 114.44 6.93182 114.054 6.93182C113.077 6.93182 112.406 7.14773 112.043 7.57955C111.679 8.01136 111.497 8.60227 111.497 9.35227V37H103.162ZM131.879 37.4943C129.129 37.4943 126.766 36.9318 124.788 35.8068C122.822 34.6705 121.305 33.0909 120.237 31.0682C119.18 29.0341 118.652 26.6761 118.652 23.9943C118.652 21.3011 119.18 18.9432 120.237 16.9205C121.305 14.8864 122.822 13.3068 124.788 12.1818C126.766 11.0455 129.129 10.4773 131.879 10.4773C134.629 10.4773 136.987 11.0455 138.953 12.1818C140.93 13.3068 142.447 14.8864 143.504 16.9205C144.572 18.9432 145.107 21.3011 145.107 23.9943C145.107 26.6761 144.572 29.0341 143.504 31.0682C142.447 33.0909 140.93 34.6705 138.953 35.8068C136.987 36.9318 134.629 37.4943 131.879 37.4943ZM131.93 31.2045C132.93 31.2045 133.777 30.8977 134.47 30.2841C135.163 29.6705 135.692 28.8182 136.055 27.7273C136.43 26.6364 136.618 25.375 136.618 23.9432C136.618 22.4886 136.43 21.2159 136.055 20.125C135.692 19.0341 135.163 18.1818 134.47 17.5682C133.777 16.9545 132.93 16.6477 131.93 16.6477C130.896 16.6477 130.021 16.9545 129.305 17.5682C128.601 18.1818 128.061 19.0341 127.686 20.125C127.322 21.2159 127.141 22.4886 127.141 23.9432C127.141 25.375 127.322 26.6364 127.686 27.7273C128.061 28.8182 128.601 29.6705 129.305 30.2841C130.021 30.8977 130.896 31.2045 131.93 31.2045ZM154.064 37.4943C152.837 37.4943 151.786 37.0625 150.911 36.1989C150.047 35.3352 149.621 34.2898 149.632 33.0625C149.621 31.858 150.047 30.8295 150.911 29.9773C151.786 29.1136 152.837 28.6818 154.064 28.6818C155.223 28.6818 156.246 29.1136 157.132 29.9773C158.03 30.8295 158.484 31.858 158.496 33.0625C158.484 33.8807 158.268 34.625 157.848 35.2955C157.439 35.9659 156.899 36.5 156.229 36.8977C155.57 37.2955 154.848 37.4943 154.064 37.4943Z" fill="black"/>
</svg>
